<?xml version="1.0" encoding="utf-8"?>
<!-- Created with Inkscape (http://www.inkscape.org/) -->
<svg width="455.68" height="455.68" version="1.2" viewBox="0 0 455.68 455.68" baseProfile="tiny-ps" xmlns="http://www.w3.org/2000/svg">
  <title>1</title>
  <path d="m0 227.84v-227.84h455.68v455.68h-455.68zm241.92 57.257c0-2.6713 0.0986-2.8498 1.2379-2.24 3.3898 1.8142 7.0821-0.76532 7.0821-4.9477 0-3.7891-3.5109-6.816-6.2226-5.3647-0.63304 0.3388-1.9399 0.46518-2.9042 0.28085l-1.7532-0.33514v7.7546c0 7.3279 0.0704 7.7546 1.28 7.7546 1.0918 0 1.28-0.42667 1.28-2.9025zm1.2947-5.4028c-1.5205-1.5205-1.5765-1.9445-0.45881-3.4731 0.5138-0.70266 1.4385-1.058 2.4-0.92233 1.2321 0.17391 1.606 0.65334 1.7615 2.2583 0.27347 2.8229-1.8128 4.0271-3.7027 2.1372zm-63.124 0.78534c0.31441-1.496 0.77781-2.72 1.0298-2.72 0.25197 0 0.71634 1.224 1.0319 2.72 0.48943 2.3201 0.80862 2.72 2.1709 2.72 1.4317 0 1.7599-0.5164 3.1681-4.9848l1.5709-4.9848 1.6291 4.9848c1.3164 4.0282 1.8986 5.0231 3.0337 5.1847 1.1756 0.16729 1.5203-0.24998 2.1145-2.56 0.39043-1.5179 0.7959-3.0479 0.90105-3.3999 0.10514-0.352 0.60326 0.8 1.1069 2.56 0.77518 2.7087 1.1541 3.2 2.4681 3.2 1.3423 0 1.7085-0.51945 2.7068-3.84 0.63497-2.112 1.3251-4.272 1.5336-4.8 0.21964-0.55618 0.98513 1.0591 1.8198 3.84 1.2712 4.2353 1.6209 4.8 2.9727 4.8 1.2781 0 1.6869-0.51616 2.4665-3.1146l0.93449-3.1146 0.98551 3.1146c0.73911 2.3359 1.3361 3.1645 2.3876 3.3141 1.2225 0.17399 1.5732-0.35873 2.7382-4.16 0.73484-2.3978 1.4913-4.8635 1.6811-5.4795 0.26458-0.859-0.0261-1.12-1.2473-1.12-1.2839 0-1.6734 0.40286-2.0109 2.08-0.92031 4.5726-1.1851 4.7713-1.9194 1.44-0.60996-2.7674-0.93432-3.2269-2.3993-3.3991-1.5136-0.17791-1.7696 0.0947-2.4037 2.56-0.39032 1.5175-0.79119 3.0471-0.89081 3.3991-0.0996 0.352-0.54831-0.88647-0.99707-2.7522l-0.81593-3.3921-5.9339 0.38429-1.4023 6.4-0.73675-2.56c-0.40522-1.408-0.73837-2.92-0.74033-3.36-2e-3 -0.46143-0.81614-0.8-1.9236-0.8s-1.9215 0.33857-1.9236 0.8c-2e-3 0.44-0.34193 1.952-0.75547 3.36l-0.7519 2.56-0.71581-3.2-0.71582-3.2-5.95-0.38738-0.70822 2.7537c-0.38952 1.5145-0.78972 3.0417-0.88935 3.3937-0.0996 0.352-0.54867-0.88799-0.99788-2.7555-0.75151-3.1243-0.95155-3.3799-2.5044-3.2-1.412 0.16359-1.7861 0.63975-2.2906 2.9155-0.33161 1.496-0.81796 2.72-1.0808 2.72-0.26282 0-0.67221-1.296-0.90975-2.88-0.37312-2.4882-0.63969-2.88-1.9592-2.88-1.8384 0-1.8325-0.10302-0.29888 5.2597 1.5333 5.3617 1.7717 5.7392 3.4712 5.4968 1.0515-0.14991 1.5146-0.84248 1.9506-2.9166zm44.55 2.08c0.63564-0.7659 0.63564-1.1541 0-1.92-1.5993-1.9271-3.879-0.45263-2.9686 1.92 0.20261 0.528 0.77416 0.96 1.2701 0.96 0.49594 0 1.2602-0.432 1.6984-0.96zm12.16-4.5714c0-5.2785-0.021-5.3486-1.6-5.3486-1.5257 0-1.6 0.17523-1.6 3.7715 0 2.8927-0.24261 3.8646-1.0411 4.171-1.833 0.70338-2.7989-0.84994-2.7989-4.5009 0-3.2444-0.0917-3.4416-1.6-3.4416-1.5302 0-1.6 0.16872-1.6 3.8691 0 5.3085 1.4687 6.828 6.5995 6.828h3.6405zm21.009 4.0461c0.1438-0.75416-0.24909-1.2886-1.1135-1.5146-1.9021-0.49741-1.9478-5.0106-0.0557-5.5054 0.704-0.1841 1.28-0.79369 1.28-1.3546 0-0.59325-0.53547-1.0199-1.28-1.0199-0.85334 0-1.28-0.42667-1.28-1.28 0-0.93867-0.42667-1.28-1.6-1.28-1.1502 0-1.6 0.34488-1.6 1.2267 0 0.67467-0.36 1.357-0.8 1.5164-0.64 0.23178-0.64 0.56071 0 1.6446 0.44 0.74522 0.8 2.6385 0.8 4.2073 0 2.2306 0.31393 3.0737 1.44 3.8677 1.8089 1.2754 3.9176 1.0209 4.2091-0.50806zm7.833 0.82284c0.85333-0.45669 1.2379-0.45669 1.2379 0 0 0.36438 0.576 0.66252 1.28 0.66252 1.181 0 1.28-0.42667 1.28-5.5146v-5.5146l-1.7532 0.33514c-0.96426 0.18433-2.2864 0.0498-2.9381-0.29898-1.468-0.78567-4.6817 0.41301-5.5732 2.0788-1.1698 2.1858-0.71631 5.6717 0.95536 7.3434 1.678 1.678 3.5092 1.9798 5.5112 0.90839zm-2.8886-2.7538c-0.72362-0.52912-1.0294-1.4567-0.88841-2.6952 0.18479-1.6238 0.48392-1.8884 2.1349-1.8884 1.6899 0 1.9436 0.24414 2.1174 2.0375 0.24109 2.4887-1.5689 3.8587-3.3639 2.5462zm12.101 1.3364c-0.0139-0.968 0.0767-1.76 0.20131-1.76s0.95356 0.864 1.8421 1.92c0.9725 1.1558 2.2298 1.92 3.1587 1.92 2.0321 0 1.9465-0.65408-0.37689-2.88-1.056-1.0117-1.92-2.152-1.92-2.5339 0-0.38195 0.88496-1.7681 1.9666-3.0803l1.9666-2.3858h-1.9201c-1.2859 0-2.3359 0.52852-3.1787 1.6-0.69221 0.88-1.3611 1.6005-1.4864 1.6011s-0.22789-1.5114-0.22789-3.36c0-2.9984-0.15543-3.3832-1.44-3.5656-1.4226-0.20203-1.44-0.11433-1.44 7.2445 0 7.3588 0.0174 7.4465 1.44 7.2445 1.1024-0.15657 1.4341-0.61708 1.4148-1.9645zm15.939 0.75354c0.92747-0.72954 1.6863-1.5935 1.6863-1.92 0-0.82844-2.7934-0.74418-3.6476 0.11003-0.38697 0.38697-1.3086 0.51156-2.048 0.27687-2.4927-0.79115-1.369-1.6204 2.1957-1.6204 4.0247 0 4.7546-0.78328 3.3876-3.6353-2.5822-5.3876-10.128-3.5213-10.128 2.5051 0 4.7991 4.826 7.216 8.5537 4.2838zm-4.7137-6.6735c0.9915-1.1947 1.3616-1.1973 2.9177-0.0204 1.162 0.87886 1.082 0.94096-1.236 0.96-2.1315 0.0175-2.3668-0.11401-1.6816-0.93964zm14.762 7.3375c0.85333-0.45669 1.2379-0.45669 1.2379 0 0 0.36438 0.576 0.66252 1.28 0.66252 1.181 0 1.28-0.42667 1.28-5.5146v-5.5146l-1.7532 0.33514c-0.96426 0.18433-2.2864 0.0498-2.9381-0.29898-1.468-0.78567-4.6817 0.41301-5.5732 2.0788-1.1698 2.1858-0.71631 5.6717 0.95536 7.3434 1.678 1.678 3.5092 1.9798 5.5112 0.90839zm-2.8886-2.7538c-0.72362-0.52912-1.0294-1.4567-0.88841-2.6952 0.18479-1.6238 0.48392-1.8884 2.1349-1.8884 1.6899 0 1.9436 0.24414 2.1174 2.0375 0.24109 2.4887-1.5689 3.8587-3.3639 2.5462zm11.84 2.7764c0.0185-0.352 0.0504-2.728 0.0709-5.28 0.034-4.244-0.0781-4.6575-1.3137-4.8445-1.2854-0.19459-1.3509 0.0616-1.3509 5.28 0 5.0578 0.0996 5.4845 1.28 5.4845 0.704 0 1.2952-0.288 1.3137-0.64zm4.714 0.25152c1.2884-0.49439 1.2975-1.7781 0.0202-2.8382-0.81841-0.67923-1.173-0.64255-2.025 0.20951s-0.88874 1.2066-0.20951 2.025c0.94318 1.1365 0.87455 1.1178 2.2143 0.60365zm10.996-1.2169c2.4273-2.4273 0.24055-4.217-2.3206-1.8992-2.097 1.8978-4.5582-0.9658-3.1276-3.6389 0.67444-1.2602 2.8127-1.5913 3.4646-0.53652 0.41197 0.66656 3.52 0.91196 3.52 0.27792 0-1.1458-1.485-2.7676-3.1755-3.4678-4.4472-1.8421-8.7183 2.7246-6.813 7.2845 1.6147 3.8646 5.6275 4.8046 8.4521 1.98zm11.321 0.31757c3.3123-2.6055 2.5677-7.922-1.336-9.539-3.6214-1.5-6.9263 0.51807-7.5948 4.6377-0.31767 1.9576-0.0888 2.5725 1.5781 4.2394 2.316 2.316 4.9486 2.553 7.3527 0.66189zm-4.8246-1.9635c-2.0859-1.2149-1.1994-5.0687 1.166-5.0687 2.21 0 3.2112 2.2091 1.9048 4.2029-1.1305 1.7254-1.4434 1.8136-3.0707 0.86582zm11.067 2.2591c0.68018-0.81956 0.63816-1.1774-0.24163-2.0571-0.99337-0.99336-1.1367-0.99336-2.13 0-0.87979 0.87979-0.92181 1.2376-0.24163 2.0571 0.45286 0.54567 1.0409 0.99213 1.3066 0.99213 0.2658 0 0.8538-0.44646 1.3067-0.99213zm8.3354 0.32961c0.85333-0.45669 1.2379-0.45669 1.2379 0 0 0.36438 0.576 0.66252 1.28 0.66252 1.1796 0 1.28-0.42667 1.28-5.44 0-5.0133-0.10039-5.44-1.28-5.44-1.1069 0-1.28 0.42666-1.28 3.1543 0 2.9044-1.0846 5.1657-2.4777 5.1657-1.2484 0-2.0023-1.8556-2.0023-4.928 0-3.1915-0.0946-3.392-1.6-3.392-1.5302 0-1.6 0.16872-1.6 3.8691 0 3.2546 0.2495 4.1186 1.5709 5.44 1.7053 1.7053 2.9488 1.9372 4.8712 0.90839zm9.4403-1.4162 0.20239-1.7587 1.6145 1.9187c0.97162 1.1547 2.229 1.9187 3.1576 1.9187 1.8967 0 1.9594-0.70492 0.20382-2.2936-2.6438-2.3926-2.7293-3.3135-0.56206-6.0499l2.0089-2.5364h-1.9273c-1.3067 0-2.3432 0.52876-3.2189 1.6419l-1.2916 1.6419-0.19491-3.4019c-0.17016-2.9702-0.37765-3.4279-1.6349-3.6065-1.4226-0.20203-1.44-0.11433-1.44 7.2445 0 7.3588 0.0174 7.4465 1.44 7.2445 1.0308-0.14639 1.4975-0.70436 1.6424-1.9632zm-263.56-19.748v-13.506l2.2636 1.9875c1.245 1.0931 3.765 2.779 5.6 3.7463 3.0255 1.5949 3.9626 1.7588 10.056 1.7588 6.112 0 7.0385-0.16327 10.24-1.8044 6.0067-3.0791 10.09-7.8034 12.824-14.836 2.1375-5.4986 2.1637-16.851 0.0513-22.232-3.0445-7.7555-8.4359-13.348-15.115-15.68-5.1379-1.7936-12.538-1.4989-17.28 0.68811-2.112 0.97406-4.92 2.8224-6.24 4.1074l-2.4 2.3364v-7.2998h-14.08v74.24h14.08zm10.876-18.452c-9.0708-2.7592-13.157-12.76-9.1703-22.442 3.7941-9.2143 16.742-11.218 23.049-3.5666 3.2862 3.9868 4.3736 10.746 2.6526 16.49-2.0524 6.8504-10.09 11.478-16.532 9.5184zm201.92 26.518c0-1.6222-2.542-2.1241-3.1206-0.61609-0.56957 1.4843 0.12784 2.3226 1.741 2.0927 0.88741-0.12645 1.3796-0.65326 1.3796-1.4766zm-254.4-15.531c1.5866-0.68774 3.8015-2.0218 4.922-2.9646l2.0372-1.7142 0.19802 2.7449 0.19802 2.7449h14.08l0.16695-27.04 0.16694-27.04h-14.734v17.179c0 16.699-0.04123 17.257-1.4738 19.966-3.6278 6.8602-15.06 7.6946-19.525 1.425-2.2264-3.1267-2.6494-6.7846-2.6658-23.051l-0.01565-15.52h-4.7899c-4.3891 0-4.9648 0.15639-6.88 1.8688l-2.0901 1.8688 0.01369 17.171c0.01302 16.325 0.08503 17.349 1.4613 20.785 2.5524 6.3723 7.8681 11.073 14.45 12.779 3.2504 0.84246 11.303 0.17261 14.48-1.2045zm151.76-0.0781c1.6319-0.78282 4.1519-2.4374 5.6-3.677l2.6329-2.2536v7.1398h14.08v-54.4h-14.08l-0.0195 3.68c-0.0143 2.7016-0.18536 3.3957-0.64346 2.6106-0.34319-0.58815-2.3418-2.2164-4.4413-3.6184-11.902-7.9476-28.355-3.0522-34.597 10.294-6.6725 14.266-1.8413 32.545 10.357 39.184 4.557 2.4803 6.3807 2.8602 12.704 2.6471 4.0246-0.13564 6.212-0.55365 8.4071-1.6066zm-10.174-11.129c-6.0133-2.2857-9.7404-8.095-9.7404-15.182 0-9.2364 5.6103-15.36 14.072-15.36 7.87 0 14.075 6.7716 14.075 15.36 0 3.4452-1.7229 8.6275-3.6163 10.878-3.3401 3.9695-10.324 6.002-14.791 4.3044zm119.25 11.339c1.7825-0.4881 4.4469-1.7611 5.921-2.8289 2.9616-2.1454 3.5139-2.8042 24.033-28.671l14.357-18.099 19.297 24.318c10.613 13.375 20.041 24.903 20.95 25.619 1.9684 1.5483 3.4594 1.6346 5.9541 0.34453 2.5373-1.3121 3.8487-3.3845 3.8384-6.0661-8e-3 -1.9969-2.5585-5.472-22.093-30.098-12.146-15.312-22.947-28.632-24.001-29.6-3.6934-3.3905-6.7301-2.1251-12.442 5.1848-17.94 22.957-36.791 45.974-38.91 47.509-2.1523 1.5591-3.1975 1.8665-6.3461 1.8665-6.1574 0-10.054-2.6942-11.941-8.2555-0.40583-1.1965-0.73788-2.4205-0.73788-2.72 0-0.29947 4.968-0.5489 11.04-0.55429 6.072-5e-3 11.351-0.22139 11.732-0.48 1.2741-0.86608 13.708-16.962 13.708-17.745 0-1.1568-3.3524-5.5599-5.8247-7.6503-1.1964-1.0116-4.0473-2.7292-6.3353-3.8171-3.8668-1.8384-4.6561-1.9778-11.2-1.9778-8.118 0-11.865 1.0658-16.764 4.7692-6.3149 4.7728-9.6918 11.417-10.262 20.191-1.3674 21.048 15.378 34.415 36.027 28.761zm-21.458-33.64c0.80956-2.8228 2.149-4.68 4.8745-6.7589 2.0846-1.59 2.8976-1.8006 6.8932-1.7857 5.2186 0.0195 7.7711 1.104 10.251 4.3559 0.89528 1.1738 1.8102 3.0461 2.0331 4.1607l0.40531 2.0266h-25.031zm133.1 11.667c0-26.858 0.62527-24.388-6.1744-24.388-7.2063 0-6.6256-2.1289-6.6256 24.289 0 17.772 0.18086 23.037 0.8 23.287 0.44 0.17754 3.32 0.34554 6.4 0.37333l5.6 0.0505zm-255.95 22.708c0.14667-0.14509 0.17423-2.8811 0.0612-6.08l-0.20537-5.8162h-4.2922c-7.3769 0-7.137 0.54974-7.137-16.356v-14.364h5.6533c3.1093 0 5.7733-0.1187 5.92-0.26377s0.17351-2.7371 0.0596-5.76l-0.20698-5.4962h-11.426v-13.44h-14.72v13.44h-6.4v11.52h6.3l0.21 15.52c0.20982 15.507 0.21145 15.523 2.0008 19.167 2.8952 5.8956 7.6603 8.0797 17.782 8.1503 3.3733 0.0236 6.2533-0.0759 6.4-0.22098zm78.172-11.068 0.17477-11.331 17.915 22.663h8.8027c4.8415 0 8.8027-0.22037 8.8027-0.48972 0-0.26934-5.2062-6.3226-11.569-13.452-6.3632-7.1291-11.475-13.23-11.36-13.557 0.11517-0.32709 4.9614-5.9901 10.769-12.584s10.936-12.513 11.396-13.154c0.7973-1.1096 0.41681-1.1638-8.1619-1.1638h-8.9982l-17.596 22.08-0.17013-17.76-0.17012-17.76h-14.06v67.84h14.05zm112.91-8.915c2.6809-1.2722 4.0685-3.764 4.0685-7.3059 0-5.9968-7.4264-9.2927-12.092-5.3666-4.3711 3.678-3.5584 10.615 1.5017 12.819 2.5971 1.1313 3.8903 1.1022 6.5219-0.14661zm62.329-33.205c3.9307-2.0326 5.0406-7.7193 2.1719-11.128-4.8554-5.7703-13.393-2.6338-13.393 4.9204 0 2.4128 0.32859 3.0984 2.3906 4.9881 2.7016 2.4758 5.6216 2.8793 8.8304 1.22z" fill="#fdfdfd" />
  <path d="m416.16 255.58c-0.61914-0.24983-0.8-5.5145-0.8-23.287 0-26.418-0.5807-24.289 6.6256-24.289 6.7997 0 6.1744-2.4698 6.1744 24.388v23.612l-5.6-0.0505c-3.08-0.0278-5.96-0.19579-6.4-0.37333zm-7.9216-11.576c-0.79608-1.0151-0.77344-1.0377 0.24163-0.24164 0.616 0.4831 1.12 0.9871 1.12 1.12 0 0.52674-0.52556 0.18771-1.3616-0.87836zm8.5522-43.311c-2.062-1.8897-2.3906-2.5753-2.3906-4.9881 0-5.4014 4.4983-9.0493 9.3621-7.5921 8.7143 2.6109 6.8211 14.771-2.2997 14.771-1.7051 0-2.8849-0.55329-4.6718-2.1908z" fill="#fa9d46" />
  <path d="m176.64 283.27c0-0.13496 0.71128-0.38136 1.5806-0.54754 0.86935-0.16619 1.4284-0.0558 1.2422 0.24539-0.32773 0.53028-2.8229 0.79735-2.8229 0.30215zm6.1867-0.18127c-0.23466-0.23467-0.42225-0.73867-0.41686-1.12 7e-3 -0.46921 0.16179-0.45866 0.48 0.0326 0.25861 0.39928 1.0462 0.86987 1.7502 1.0458 1.2381 0.30932 1.2364 0.32222-0.0533 0.39403-0.73333 0.0408-1.5253-0.11775-1.76-0.35242zm10.293 3e-3c0.44-0.17755 1.16-0.17755 1.6 0 0.44 0.17754 0.08 0.3228-0.8 0.3228s-1.24-0.14526-0.8-0.3228zm5.6989-0.0561c-0.16316-0.264 0.51234-0.48 1.5011-0.48 0.98877 0 1.6643 0.216 1.5011 0.48s-0.83866 0.48-1.5011 0.48c-0.66246 0-1.338-0.216-1.5011-0.48zm8.9183-0.0676c-0.18613-0.30115 0.37288-0.41158 1.2422-0.24539 0.86935 0.16618 1.5806 0.41258 1.5806 0.54754 0 0.4952-2.4951 0.22813-2.8229-0.30215zm7.7829 0.12369c0.44-0.17755 1.16-0.17755 1.6 0 0.44 0.17754 0.08 0.3228-0.8 0.3228s-1.24-0.14526-0.8-0.3228zm6.2769-0.15646c-0.19726-0.31917 0.21775-0.42958 0.92223-0.24535 1.4944 0.39079 1.6833 0.82567 0.35866 0.82567-0.50723 0-1.0836-0.26115-1.2809-0.58032zm8.4431 0.15646c0.44-0.17755 1.16-0.17755 1.6 0 0.44 0.17754 0.08 0.3228-0.8 0.3228s-1.24-0.14526-0.8-0.3228zm3.36-0.24539c-0.7011-0.47443-0.44219-0.53381 0.96-0.22016 2.3532 0.52638 2.8641 0.89269 1.2267 0.87961-0.67466-5e-3 -1.6587-0.30214-2.1867-0.65945zm11.052 0.22573c0.6227-0.16227 1.4867-0.15159 1.92 0.0237 0.4333 0.17531-0.0762 0.30807-1.1322 0.29503-1.056-0.013-1.4105-0.15648-0.78782-0.31875zm11.188 0.0238c1.7069-0.36669 1.9142-1.9067 0.32-2.3766-0.87044-0.25661-0.83479-0.30076 0.16-0.19816 1.9758 0.20378 1.6944 2.6473-0.32 2.7793-1.41 0.0924-1.429 0.0681-0.16-0.20451zm6.7322-0.0238c0.6227-0.16227 1.4867-0.15159 1.92 0.0237 0.4333 0.17531-0.0762 0.30807-1.1322 0.29503-1.056-0.013-1.4105-0.15648-0.78782-0.31875zm4.7878 0.0197c0.44-0.17755 1.16-0.17755 1.6 0 0.44 0.17754 0.08 0.3228-0.8 0.3228s-1.24-0.14526-0.8-0.3228zm5.7206 9e-3c0.77035-0.16731 1.5287-0.8669 1.6852-1.5546 0.22118-0.9721 0.26556-0.92773 0.19936 0.19936-0.0626 1.0658-0.50895 1.4776-1.6852 1.5546-1.3325 0.0873-1.3658 0.054-0.19936-0.19935zm5.3194 0.16924c0-0.13496 0.72-0.38302 1.6-0.55125 0.88-0.16822 1.6-0.0578 1.6 0.2454 0 0.30318-0.72 0.55125-1.6 0.55125s-1.6-0.11043-1.6-0.2454zm7.84-0.19577c0.616-0.16098 1.624-0.16098 2.24 0 0.616 0.16097 0.112 0.29268-1.12 0.29268s-1.736-0.13171-1.12-0.29268zm11.532-2e-3c0.62269-0.16227 1.4867-0.15159 1.92 0.0237 0.4333 0.17531-0.0762 0.30807-1.1322 0.29503-1.056-0.013-1.4105-0.15648-0.78782-0.31875zm4.7878 0.0197c0.44-0.17755 1.16-0.17755 1.6 0 0.44 0.17754 0.08 0.3228-0.8 0.3228s-1.24-0.14526-0.8-0.3228zm5.12 0c0.44-0.17755 1.16-0.17755 1.6 0 0.44 0.17754 0.08 0.3228-0.8 0.3228s-1.24-0.14526-0.8-0.3228zm13.12-0.0173c0.616-0.16098 1.624-0.16098 2.24 0 0.616 0.16097 0.112 0.29268-1.12 0.29268s-1.736-0.13171-1.12-0.29268zm11.52 0c0.616-0.16098 1.624-0.16098 2.24 0 0.616 0.16097 0.112 0.29268-1.12 0.29268s-1.736-0.13171-1.12-0.29268zm16.32 0.0173c0.44-0.17755 1.16-0.17755 1.6 0 0.44 0.17754 0.08 0.3228-0.8 0.3228s-1.24-0.14526-0.8-0.3228zm4.48 0c0.44-0.17755 1.16-0.17755 1.6 0 0.44 0.17754 0.08 0.3228-0.8 0.3228s-1.24-0.14526-0.8-0.3228zm5.7224 9e-3c1.0015-0.2174 1.4828-0.88765 1.6835-2.3448 0.27111-1.9677 0.27815-1.9606 0.1976 0.19959-0.0712 1.9098-0.31939 2.2554-1.6835 2.3448-1.336 0.0875-1.3686 0.0546-0.19759-0.19959zm5.3176 0.16936c0-0.13496 0.72-0.38302 1.6-0.55125 0.88-0.16822 1.6-0.0578 1.6 0.2454 0 0.30318-0.72 0.55125-1.6 0.55125s-1.6-0.11043-1.6-0.2454zm-116.48-0.63653c0-0.1329 0.504-0.6369 1.12-1.12 1.0151-0.79608 1.0377-0.77344 0.24163 0.24164-0.83608 1.0661-1.3616 1.4051-1.3616 0.87836zm12.078-0.87836c-0.79608-1.0151-0.77344-1.0377 0.24164-0.24164 0.616 0.4831 1.12 0.9871 1.12 1.12 0 0.52674-0.52556 0.18771-1.3616-0.87836zm23.68 0c-0.79608-1.0151-0.77344-1.0377 0.24164-0.24164 0.616 0.4831 1.12 0.9871 1.12 1.12 0 0.52674-0.52556 0.18771-1.3616-0.87836zm11.52 0c-0.79608-1.0151-0.77344-1.0377 0.24164-0.24164 0.616 0.4831 1.12 0.9871 1.12 1.12 0 0.52674-0.52556 0.18771-1.3616-0.87836zm29.522 0.87836c0-0.1329 0.504-0.6369 1.12-1.12 1.0151-0.79608 1.0377-0.77344 0.24164 0.24164-0.83608 1.0661-1.3616 1.4051-1.3616 0.87836zm12.48-1.0384c0.63712-0.704 1.3024-1.28 1.4784-1.28s-0.20127 0.576-0.83839 1.28c-0.63711 0.704-1.3024 1.28-1.4784 1.28s0.20127-0.576 0.83838-1.28zm-115.03-1.3878c0.37191-0.37191 1.054-0.55027 1.5157-0.39636 0.47933 0.15977 0.18922 0.44988-0.67619 0.67619-1.0645 0.27838-1.3144 0.19509-0.8395-0.27983zm101.19-0.05219c0.93615-1.1937 2.9702-1.5016 3.5648-0.53969 0.19726 0.31917-0.21928 0.42918-0.92564 0.24446-0.70636-0.18471-1.7868 0.0581-2.4009 0.53969-1.0112 0.79293-1.0337 0.76986-0.23823-0.24446zm11.666-0.2909c0.46601-0.77599 0.98505-1.2731 1.1534-1.1048s-0.21291 0.80327-0.84729 1.4109c-1.102 1.0556-1.1157 1.0419-0.30613-0.30613zm10.381-3.3891c0-2.288 0.11616-3.224 0.25813-2.08s0.14197 3.016 0 4.16-0.25813 0.208-0.25813-2.08zm-167.88 2.56c0-0.352 0.30499-0.64 0.67777-0.64 0.37277 0 0.49978 0.288 0.28223 0.64s-0.52255 0.64-0.67777 0.64c-0.15523 0-0.28223-0.288-0.28223-0.64zm22.694-0.0426c-0.23202-0.37542-0.2846-0.81984-0.11683-0.98761 0.16776-0.16776 0.47556 0.1394 0.684 0.68258 0.43275 1.1278 0.0639 1.3261-0.56717 0.30503zm33.825-2.8374c4e-3 -2.112 0.12307-2.8988 0.26551-1.7485 0.14244 1.1503 0.1395 2.8783-7e-3 3.84-0.14603 0.96169-0.26257 0.0205-0.25898-2.0915zm51.42 2.72c0.16346-0.264 1.8431-0.48 3.7325-0.48 2.5142 0 3.5162-0.26076 3.7371-0.97255 0.21165-0.68206 0.27162-0.63427 0.2008 0.16-0.0812 0.91053-0.87205 1.1953-4.0343 1.4526-2.1633 0.176-3.7996 0.104-3.6361-0.16zm42.586-0.8c0.013-1.056 0.15648-1.4105 0.31875-0.78782s0.1516 1.4867-0.0237 1.92c-0.17531 0.4333-0.30807-0.0762-0.29503-1.1322zm-66.634-0.0533c0.0307-0.74556 0.18236-0.89721 0.38667-0.38666 0.18488 0.462 0.16214 1.014-0.0505 1.2267-0.21266 0.21267-0.36393-0.16533-0.33614-0.84zm5.1705-0.26666c0-0.88 0.14526-1.24 0.32281-0.8 0.17754 0.44 0.17754 1.16 0 1.6-0.17755 0.44-0.32281 0.08-0.32281-0.8zm30.08 0c0-0.88 0.14526-1.24 0.3228-0.8 0.17755 0.44 0.17755 1.16 0 1.6-0.17754 0.44-0.3228 0.08-0.3228-0.8zm5.12 0c0-0.88 0.14526-1.24 0.3228-0.8 0.17755 0.44 0.17755 1.16 0 1.6-0.17754 0.44-0.3228 0.08-0.3228-0.8zm37.12 0c0-0.88 0.14526-1.24 0.3228-0.8 0.17755 0.44 0.17755 1.16 0 1.6-0.17754 0.44-0.3228 0.08-0.3228-0.8zm24.499 0.57544c-0.23949-0.3875 0.23682-1.3235 1.0585-2.08l1.4939-1.3754-1.1589 1.3997c-0.63741 0.76982-0.96973 1.7058-0.73847 2.08s0.27647 0.68033 0.10047 0.68033-0.51595-0.31705-0.75544-0.70456zm-166.32-1.0279c-0.34731-0.91213-0.2738-0.98564 0.35827-0.35827 0.43739 0.43413 0.63403 0.95055 0.43698 1.1476-0.19704 0.19705-0.55491-0.15815-0.79525-0.78933zm80.279 0.63743c0-0.36757 0.504-1.0636 1.12-1.5467 1.036-0.81249 1.0496-0.78237 0.18109 0.40164-0.51639 0.704-1.0204 1.4-1.12 1.5467-0.0996 0.14667-0.18109-0.0341-0.18109-0.40163zm9.4475-1.2777c0.7961-0.15309 1.9481-0.14727 2.56 0.0129 0.61189 0.16019-0.0395 0.28544-1.4475 0.27834-1.408-7e-3 -1.9086-0.13817-1.1125-0.29125zm37.051-0.66735c-0.16316-0.264 0.53984-0.48 1.5622-0.48s1.8589 0.216 1.8589 0.48-0.703 0.48-1.5622 0.48c-0.85923 0-1.6957-0.216-1.8589-0.48zm36.816-2.8355c-0.10208-3.2172-0.28106-3.6674-1.5554-3.9128l-1.44-0.27735 1.4601-0.0872c1.8236-0.10885 2.201 0.84671 1.8936 4.7942l-0.24292 3.1187zm-277.08-35.245 0.1547-37.28 0.34098 73.877 13.75 0.41135-14.4 0.27185zm167.75 36.292c-0.20843-0.54318-0.23597-1.1306-0.0612-1.3054 0.17478-0.17478 0.4714 0.26964 0.65915 0.9876 0.39881 1.5251-0.0443 1.7606-0.59796 0.31778zm5.0198 0.59151c0.59435-0.17743 1.2258-0.8089 1.4032-1.4032 0.23396-0.78372 0.28671-0.73096 0.192 0.192-0.0765 0.74594-0.6573 1.3267-1.4032 1.4032-0.92296 0.0947-0.97572 0.042-0.192-0.192zm18.547-2.2794c-0.0918-2.5558-0.31897-3.0362-1.5476-3.2728l-1.44-0.27735 1.4601-0.0872c1.7671-0.10548 2.2269 0.90781 1.8902 4.1655-0.24591 2.3788-0.25892 2.3598-0.36265-0.52818zm54.612 1.3955c0.63712-0.704 1.3024-1.28 1.4784-1.28s-0.20127 0.576-0.83839 1.28c-0.63711 0.704-1.3024 1.28-1.4784 1.28s0.20127-0.576 0.83838-1.28zm-84.28-1.7172c0.462-0.18487 1.014-0.16214 1.2267 0.0505 0.21267 0.21267-0.16533 0.36393-0.84 0.33614-0.74556-0.0307-0.89721-0.18236-0.38666-0.38667zm17.92 0c0.462-0.18487 1.014-0.16214 1.2267 0.0505 0.21267 0.21267-0.16533 0.36393-0.84 0.33614-0.74556-0.0307-0.89721-0.18236-0.38666-0.38667zm23.64 0.0133c0.44-0.17755 1.16-0.17755 1.6 0 0.44 0.17754 0.08 0.3228-0.8 0.3228s-1.24-0.14526-0.8-0.3228zm11.56-0.0133c0.462-0.18487 1.014-0.16214 1.2267 0.0505 0.21267 0.21267-0.16533 0.36393-0.84 0.33614-0.74556-0.0307-0.89721-0.18236-0.38666-0.38667zm23 0.0133c0.44-0.17755 1.16-0.17755 1.6 0 0.44 0.17754 0.08 0.3228-0.8 0.3228s-1.24-0.14526-0.8-0.3228zm11.52 0c0.44-0.17755 1.16-0.17755 1.6 0 0.44 0.17754 0.08 0.3228-0.8 0.3228s-1.24-0.14526-0.8-0.3228zm-25.786-1.5387c-0.23202-0.37542-0.2846-0.81984-0.11684-0.98761 0.16777-0.16776 0.47557 0.1394 0.684 0.68258 0.43276 1.1278 0.0639 1.3261-0.56716 0.30503zm-263.49-15.101c0.44-0.17755 1.16-0.17755 1.6 0 0.44 0.17754 0.08 0.3228-0.8 0.3228s-1.24-0.14526-0.8-0.3228zm5.8-0.0133c0.462-0.18487 1.014-0.16214 1.2267 0.0505 0.21267 0.21267-0.16533 0.36393-0.84 0.33614-0.74556-0.0307-0.89722-0.18236-0.38667-0.38667zm257.24 0.0133c0.44-0.17755 1.16-0.17755 1.6 0 0.44 0.17754 0.08 0.3228-0.8 0.3228s-1.24-0.14526-0.8-0.3228zm-229.6-27.608 0.31967-27.328 0.16745 26.841c0.0921 14.762-0.05175 27.06-0.31967 27.328-0.26792 0.26813-0.34327-11.81-0.16745-26.841zm83.36 26.95c0.616-0.16098 1.624-0.16098 2.24 0s0.112 0.29268-1.12 0.29268-1.736-0.1317-1.12-0.29268zm76.298-33.479c0-18.832 0.0816-26.536 0.18135-17.12 0.0998 9.416 0.0998 24.824 0 34.24-0.0997 9.416-0.18135 1.712-0.18135-17.12zm64.222 33.483c0.462-0.18487 1.014-0.16214 1.2267 0.0505 0.21267 0.21267-0.16533 0.36393-0.84 0.33614-0.74556-0.0307-0.89721-0.18236-0.38666-0.38667zm12.16 0c0.462-0.18487 1.014-0.16214 1.2267 0.0505 0.21267 0.21267-0.16533 0.36393-0.84 0.33614-0.74556-0.0307-0.89721-0.18236-0.38667-0.38667zm-250.01-2.7144-0.11181-2.8316-3.52 3.067 1.7406-1.868c0.95733-1.0274 1.9114-1.6972 2.1201-1.4886 0.2087 0.2087 0.26774 1.6334 0.13121 3.1661l-0.24824 2.7866zm36.008-2.7684-1.8797-2.08 2.08 1.8797c1.9389 1.7522 2.3742 2.2803 1.8797 2.2803-0.11015 0-1.0461-0.936-2.08-2.08zm113 1.8797c0-0.11014 0.936-1.0461 2.08-2.08l2.08-1.8797-1.8797 2.08c-1.7522 1.9388-2.2803 2.3742-2.2803 1.8797zm70.019-1.2397-1.2192-1.44 1.44 1.2192c0.792 0.67055 1.44 1.3186 1.44 1.44 0 0.51216-0.51507 0.13405-1.6608-1.2192zm40.701 1.1984c0-0.1329 0.504-0.6369 1.12-1.12 1.0151-0.79608 1.0377-0.77344 0.24164 0.24164-0.83608 1.0661-1.3616 1.4051-1.3616 0.87836zm-143.44-4.0784c-0.79608-1.0151-0.77344-1.0377 0.24164-0.24164 1.0661 0.83608 1.4051 1.3616 0.87836 1.3616-0.1329 0-0.6369-0.504-1.12-1.12zm97.621-2.88-1.2192-1.44 1.44 1.2192c1.3532 1.1457 1.7314 1.6608 1.2192 1.6608-0.12145 0-0.76945-0.648-1.44-1.44zm29.021-0.29167c0.792-0.15255 2.088-0.15255 2.88 0 0.792 0.15254 0.144 0.27735-1.44 0.27735s-2.232-0.12481-1.44-0.27735zm-47.922-1.9483c-0.79608-1.0151-0.77344-1.0377 0.24164-0.24164 1.0661 0.83608 1.4051 1.3616 0.87836 1.3616-0.1329 0-0.6369-0.504-1.12-1.12zm-136.88-2.4c0.82672-0.88 1.6471-1.6 1.8231-1.6s-0.3564 0.72-1.1831 1.6-1.6471 1.6-1.8231 1.6 0.3564-0.72 1.1831-1.6zm24.959-12.929c-0.17544-8.167-0.0973-14.627 0.17357-14.355 0.2709 0.2715 0.41444 6.9536 0.31898 14.849l-0.17357 14.355zm168.96 14.287c0-0.1329 0.504-0.6369 1.12-1.12 1.0151-0.79608 1.0377-0.77344 0.24164 0.24164-0.83608 1.0661-1.3616 1.4051-1.3616 0.87836zm-154.75-14.281c-0.0708-7.8112 0.0872-14.336 0.35121-14.5 0.264-0.16389 0.40581 4.0671 0.31514 9.4022-0.30042 17.676-0.53594 19.478-0.66635 5.098zm31.15 12.762c-0.79608-1.0151-0.77344-1.0377 0.24164-0.24164 1.0661 0.83608 1.4051 1.3616 0.87836 1.3616-0.1329 0-0.6369-0.504-1.12-1.12zm80.033-1.28-1.5516-1.76 1.76 1.5516c1.645 1.4502 2.0535 1.9684 1.5516 1.9684-0.11464 0-0.90664-0.792-1.76-1.76zm46.768-1.0416c0-0.1329 0.504-0.6369 1.12-1.12 1.0151-0.79608 1.0377-0.77344 0.24164 0.24164-0.83608 1.0661-1.3616 1.4051-1.3616 0.87836zm-292.84-16.078c4.19e-4 -8.448 0.09149-11.815 0.20237-7.4833 0.11089 4.3322 0.11054 11.244-7.61e-4 15.36-0.1113 4.1158-0.20203 0.5713-0.20161-7.8767zm13.855 12.747c0.03071-0.74556 0.18236-0.89721 0.38667-0.38666 0.18488 0.462 0.16214 1.014-0.05053 1.2267-0.21267 0.21267-0.36393-0.16533-0.33614-0.84zm281.55 0.1317c0-0.1329 0.504-0.6369 1.12-1.12 1.0151-0.79608 1.0377-0.77344 0.24164 0.24164-0.83608 1.0661-1.3616 1.4051-1.3616 0.87836zm-54.781-1.8384-1.2192-1.44 1.44 1.2192c1.3532 1.1457 1.7314 1.6608 1.2192 1.6608-0.12145 0-0.76945-0.648-1.44-1.44zm-202.86-15.2c0-8.976 0.09001-12.648 0.20003-8.16 0.11002 4.488 0.11002 11.832 0 16.32s-0.20003 0.816-0.20003-8.16zm217.37 14.987c0.0307-0.74556 0.18236-0.89721 0.38667-0.38666 0.18488 0.462 0.16214 1.014-0.0505 1.2267-0.21266 0.21267-0.36393-0.16533-0.33614-0.84zm-140.73-1.2267c0.0131-1.056 0.15648-1.4105 0.31875-0.78782s0.1516 1.4867-0.0237 1.92c-0.17531 0.4333-0.30808-0.0762-0.29504-1.1322zm33.36-2.88c0-2.288 0.11616-3.224 0.25813-2.08s0.14197 3.016 0 4.16-0.25813 0.208-0.25813-2.08zm-47.391 0c0-1.584 0.12481-2.232 0.27736-1.44 0.15254 0.792 0.15254 2.088 0 2.88-0.15255 0.792-0.27736 0.144-0.27736-1.44zm61.367 0c0-0.88 0.14526-1.24 0.32281-0.8 0.17754 0.44 0.17754 1.16 0 1.6-0.17755 0.44-0.32281 0.08-0.32281-0.8zm-47.336-2.88c0.0131-1.056 0.15648-1.4105 0.31875-0.78782s0.1516 1.4867-0.0237 1.92c-0.17531 0.4333-0.30808-0.0762-0.29504-1.1322zm125 0.32c0.63711-0.704 1.3024-1.28 1.4784-1.28s-0.20127 0.576-0.83838 1.28c-0.63712 0.704-1.3024 1.28-1.4784 1.28s0.20127-0.576 0.83839-1.28zm-167.31-0.37334c0.03071-0.74556 0.18236-0.89721 0.38667-0.38666 0.18488 0.462 0.16214 1.014-0.05053 1.2267-0.21267 0.21267-0.36393-0.16533-0.33614-0.84zm183.04-1.28c0.0307-0.74556 0.18236-0.89721 0.38667-0.38666 0.18488 0.462 0.16214 1.014-0.0505 1.2267-0.21266 0.21267-0.36393-0.16533-0.33614-0.84zm-30.131-0.5083c0-0.1329 0.504-0.6369 1.12-1.12 1.0151-0.79608 1.0377-0.77344 0.24163 0.24164-0.83608 1.0661-1.3616 1.4051-1.3616 0.87836zm18.88-2.9584c0.63711-0.704 1.3024-1.28 1.4784-1.28s-0.20127 0.576-0.83838 1.28c-0.63712 0.704-1.3024 1.28-1.4784 1.28s0.20127-0.576 0.83839-1.28zm-167.68-3.84c0.63711-0.704 1.3024-1.28 1.4784-1.28s-0.20127 0.576-0.83838 1.28-1.3024 1.28-1.4784 1.28 0.20128-0.576 0.83839-1.28zm196.48-1.28c0.63711-0.704 1.3024-1.28 1.4784-1.28s-0.20127 0.576-0.83838 1.28c-0.63712 0.704-1.3024 1.28-1.4784 1.28s0.20127-0.576 0.83839-1.28zm-24.64 0.39836c0-0.1329 0.504-0.6369 1.12-1.12 1.0151-0.79608 1.0377-0.77344 0.24163 0.24164-0.83608 1.0661-1.3616 1.4051-1.3616 0.87836zm-162.39-3.4019c0.6227-0.16227 1.4867-0.15159 1.92 0.0237 0.4333 0.17531-0.0762 0.30807-1.1322 0.29503-1.056-0.013-1.4105-0.15648-0.78782-0.31875zm28.859-5.3165c0-3.344 0.10786-4.712 0.2397-3.04s0.13184 4.408 0 6.08-0.2397 0.304-0.2397-3.04zm60.741 5.3165c0.6227-0.16227 1.4867-0.15159 1.92 0.0237 0.4333 0.17531-0.0762 0.30807-1.1322 0.29503-1.056-0.013-1.4105-0.15648-0.78782-0.31875zm78.228-2.7565c0.63711-0.704 1.3024-1.28 1.4784-1.28s-0.20127 0.576-0.83838 1.28c-0.63712 0.704-1.3024 1.28-1.4784 1.28s0.20127-0.576 0.83839-1.28zm-145.68-1.12c-0.79607-1.0151-0.77344-1.0377 0.24164-0.24164 0.616 0.4831 1.12 0.9871 1.12 1.12 0 0.52674-0.52556 0.18772-1.3616-0.87836zm46.162 0.27974c0-0.11015 0.936-1.0462 2.08-2.08l2.08-1.8797-1.8797 2.08c-1.7522 1.9388-2.2803 2.3742-2.2803 1.8797zm34.478-2.1997c-0.79608-1.0151-0.77344-1.0377 0.24164-0.24164 0.616 0.4831 1.12 0.9871 1.12 1.12 0 0.52674-0.52556 0.18772-1.3616-0.87836zm69.522-2.08c0.63711-0.704 1.3024-1.28 1.4784-1.28s-0.20127 0.576-0.83838 1.28c-0.63712 0.704-1.3024 1.28-1.4784 1.28s0.20127-0.576 0.83839-1.28zm-137.04-9.92c1e-3 -3.872 0.10686-5.3735 0.23425-3.3366 0.12739 2.0369 0.12621 5.2049-3e-3 7.04-0.12883 1.8352-0.23306 0.16864-0.23162-3.7034zm14.08 0c1e-3 -3.872 0.10686-5.3735 0.23425-3.3366 0.12739 2.0369 0.12621 5.2049-3e-3 7.04-0.12883 1.8352-0.23306 0.16864-0.23162-3.7034zm142.36 6.2828c0.462-0.18487 1.014-0.16214 1.2267 0.0505 0.21267 0.21267-0.16533 0.36393-0.84 0.33614-0.74556-0.0307-0.89721-0.18236-0.38666-0.38667zm8.32 0c0.46199-0.18487 1.014-0.16214 1.2267 0.0505 0.21267 0.21267-0.16533 0.36393-0.84 0.33614-0.74556-0.0307-0.89721-0.18236-0.38666-0.38667zm-197.48-0.66121c0.968-0.14664 2.552-0.14664 3.52 0s0.176 0.26662-1.76 0.26662-2.728-0.11998-1.76-0.26662zm82.56 0c0.968-0.14664 2.552-0.14664 3.52 0s0.176 0.26662-1.76 0.26662-2.728-0.11998-1.76-0.26662z" fill="#9898aa" />
  <path d="m327.61 245.31c0.5534-1.0849 0.50341-1.9711-0.21659-3.84-0.51482-1.3363-1.4065-4.1004-1.9816-6.1424-0.91733-3.2574-1.1694-3.6106-2.0547-2.88-0.70382 0.58081-0.92924 0.60251-0.74506 0.0718 0.48522-1.3983 32.714-41.795 34.632-43.408 1.2318-1.0365 2.5979-1.5603 3.9212-1.5035 1.5059 0.0646 1.6587 0.15885 0.59089 0.36452-1.7135 0.33004-1.7353 0.55383-0.42835 4.4033 0.55641 1.6389 1.1036 3.4489 1.216 4.0224 0.36837 1.8792 2.958 9.9357 4.2246 13.143 0.68211 1.7272 1.1285 3.2522 0.99189 3.3887-0.13657 0.13656-1.7526-1.6421-3.5911-3.9526l-3.3428-4.2009-15.672 19.692c-8.6198 10.831-16.255 20.268-16.968 20.972l-1.2956 1.28zm29.057-10.189c-5.1008-2.5152-5.7733-9.0023-1.3214-12.748 1.7645-1.4848 2.4525-1.6696 5.2233-1.4034 2.5597 0.24596 3.5468 0.70475 4.9891 2.319 3.2473 3.6344 2.07 9.7661-2.2705 11.826-2.7289 1.295-4.0054 1.2963-6.6204 7e-3zm14.447-17.361c-0.79608-1.0151-0.77344-1.0377 0.24163-0.24164 0.616 0.4831 1.12 0.9871 1.12 1.12 0 0.52674-0.52555 0.18772-1.3616-0.87836zm-2.56-3.2c-0.79608-1.0151-0.77344-1.0377 0.24163-0.24164 1.0661 0.83608 1.4051 1.3616 0.87837 1.3616-0.1329 0-0.6369-0.504-1.12-1.12zm-2.56-23.68c-0.79608-1.0151-0.77344-1.0377 0.24163-0.24164 0.616 0.4831 1.12 0.9871 1.12 1.12 0 0.52674-0.52555 0.18772-1.3616-0.87836z" fill="#cf4abb" />
  <path d="m401.92 255.18c-0.88-0.4416-8.8171-9.9817-17.638-21.2-12.01-15.275-16.375-21.299-17.381-23.988-1.4557-3.8932-4.0245-11.913-4.3538-13.593-0.11241-0.57344-0.65962-2.3835-1.216-4.0224-1.333-3.9264-1.2928-4.215 0.58835-4.215 2.0969 0 1.9818-0.12577 16.772 18.334 23.239 29.005 31.579 39.902 31.948 41.745 0.5048 2.524-1.1634 5.4497-3.8284 6.7143-2.6288 1.2474-2.8342 1.2569-4.8915 0.22451z" fill="#f94d67" />
  <path d="m279.6 281.12c-0.79608-1.0151-0.77344-1.0377 0.24164-0.24164 0.616 0.4831 1.12 0.9871 1.12 1.12 0 0.52674-0.52556 0.18771-1.3616-0.87836zm85.76 0c-0.79608-1.0151-0.77344-1.0377 0.24163-0.24164 1.0661 0.83608 1.4051 1.3616 0.87837 1.3616-0.1329 0-0.6369-0.504-1.12-1.12zm-113.02-3.36c0-1.584 0.12481-2.232 0.27736-1.44 0.15254 0.792 0.15254 2.088 0 2.88-0.15255 0.792-0.27736 0.144-0.27736-1.44zm2.56 0c0-1.584 0.12481-2.232 0.27736-1.44 0.15254 0.792 0.15254 2.088 0 2.88-0.15255 0.792-0.27736 0.144-0.27736-1.44zm-28.136-1.6c4e-3 -2.112 0.12308-2.8988 0.26551-1.7485 0.14244 1.1503 0.1395 2.8783-7e-3 3.84-0.14603 0.96169-0.26257 0.0205-0.25898-2.0915zm2.5535 0.32c0-1.936 0.11998-2.728 0.26662-1.76s0.14664 2.552 0 3.52-0.26662 0.176-0.26662-1.76zm118.4-0.64c0-1.936 0.11998-2.728 0.26662-1.76s0.14664 2.552 0 3.52-0.26662 0.176-0.26662-1.76zm-143.55-2.56c0-0.352 0.30499-0.64 0.67777-0.64 0.37277 0 0.49977 0.288 0.28223 0.64-0.21755 0.352-0.52255 0.64-0.67777 0.64-0.15523 0-0.28223-0.288-0.28223-0.64zm50.611-1.6533c0.0307-0.74556 0.18236-0.89721 0.38667-0.38666 0.18488 0.462 0.16214 1.014-0.0505 1.2267-0.21266 0.21267-0.36393-0.16533-0.33614-0.84zm54.711-1.0943c0.24034-0.63118 0.59821-0.98638 0.79525-0.78933 0.19705 0.19705 4.1e-4 0.71347-0.43698 1.1476-0.63207 0.62737-0.70559 0.55386-0.35827-0.35827zm-263.23-14.976c0.6227-0.16227 1.4867-0.15159 1.92 0.0237 0.4333 0.17531-0.07618 0.30807-1.1322 0.29503-1.056-0.013-1.4105-0.15648-0.78782-0.31875zm20.148-0.66832c1.848-0.12928 4.872-0.12928 6.72 0s0.336 0.23506-3.36 0.23506-5.208-0.10578-3.36-0.23506zm98.546 0.01c1.1362-0.14139 3.1522-0.14371 4.48-5e-3 1.3278 0.13854 0.39828 0.25422-2.0657 0.25706-2.464 3e-3 -3.5504-0.11052-2.4143-0.2519zm57.607-3e-3 6.5531-0.21941 0.17735-26.698 0.17734-26.698-0.0208 53.76-13.44 0.0742zm17.287-7e-3c1.848-0.12928 4.872-0.12928 6.72 0s0.336 0.23506-3.36 0.23506-5.208-0.10578-3.36-0.23506zm37.146-7e-3c6.0967-0.14263 8.3801-0.40298 8.0611-0.91913-0.27161-0.43947-0.1571-0.54215 0.29382-0.26347 2.0698 1.2792 0.0998 1.651-8.0611 1.5214l-8.8-0.13976zm38.836-5.758c-0.66269-2.6612-1.5288-5.1411-1.9246-5.5109-0.70257-0.6563 1.5308-3.4174 7.9934-9.8819 2.5336-2.5343 2.1031-3.0125 4.748 5.274l1.623 5.0847-1.3462 2.3953c-1.3544 2.4099-5.4392 5.7857-8.3312 6.8852-1.5119 0.5748-1.5925 0.45082-2.7622-4.2464zm-284.54 0.63683c-0.79608-1.0151-0.77344-1.0377 0.24164-0.24164 0.616 0.4831 1.12 0.9871 1.12 1.12 0 0.52674-0.52556 0.18771-1.3616-0.87836zm99.922-0.48c0.82671-0.88 1.6471-1.6 1.8231-1.6s-0.35641 0.72-1.1831 1.6c-0.82672 0.88-1.6471 1.6-1.8231 1.6s0.3564-0.72 1.1831-1.6zm49.838-0.16c-0.79608-1.0151-0.77344-1.0377 0.24164-0.24164 1.0661 0.83608 1.4051 1.3616 0.87836 1.3616-0.1329 0-0.6369-0.504-1.12-1.12zm-130.96-5.0812c0.616-0.16098 1.624-0.16098 2.24 0s0.112 0.29268-1.12 0.29268-1.736-0.1317-1.12-0.29268zm115.51-0.66074c1.1362-0.14139 3.1522-0.14371 4.48-5e-3 1.3278 0.13854 0.39828 0.25422-2.0657 0.25706-2.464 3e-3 -3.5504-0.11052-2.4143-0.2519zm108.89-1.2981c-0.79608-1.0151-0.77344-1.0377 0.24164-0.24164 1.0661 0.83608 1.4051 1.3616 0.87836 1.3616-0.1329 0-0.6369-0.504-1.12-1.12zm-232.32-1.28c-0.79608-1.0151-0.77344-1.0377 0.24164-0.24164 0.616 0.4831 1.12 0.9871 1.12 1.12 0 0.52674-0.52556 0.18771-1.3616-0.87836zm257.52-8.9565c3.08-0.11732 8.12-0.11732 11.2 0 3.08 0.11732 0.55999 0.21331-5.6 0.21331-6.16 0-8.68-0.096-5.6-0.21331zm-19.235-2.4035c0.0131-1.056 0.15648-1.4105 0.31875-0.78782s0.1516 1.4867-0.0237 1.92c-0.17532 0.4333-0.30808-0.0762-0.29504-1.1322zm-140.82-1.6c0-0.88 0.14526-1.24 0.32281-0.8 0.17754 0.44 0.17754 1.16 0 1.6-0.17755 0.44-0.32281 0.08-0.32281-0.8zm140.8-1.92c0-0.88 0.14526-1.24 0.32281-0.8 0.17754 0.44 0.17754 1.16 0 1.6-0.17755 0.44-0.32281 0.08-0.32281-0.8zm18.139-3.0007c11.045-0.45946 21.296-0.47862 21.023-0.0393-0.16402 0.264-5.9692 0.42277-12.9 0.35283-6.9312-0.07-10.586-0.21104-8.1222-0.31353zm-107.52-6.5993c0.63711-0.704 1.3024-1.28 1.4784-1.28s-0.20127 0.576-0.83838 1.28-1.3024 1.28-1.4784 1.28 0.20128-0.576 0.83839-1.28zm80.32 1.0384c0-0.1329 0.504-0.6369 1.12-1.12 1.0151-0.79608 1.0377-0.77344 0.24163 0.24164-0.83608 1.0661-1.3616 1.4051-1.3616 0.87836zm-130.08-5.33c0.792-0.15255 2.088-0.15255 2.88 0 0.792 0.15254 0.144 0.27735-1.44 0.27735s-2.232-0.12481-1.44-0.27735zm22.4-0.0169c1.496-0.13475 3.944-0.13475 5.44 0 1.496 0.13474 0.272 0.24498-2.72 0.24498s-4.216-0.11024-2.72-0.24498zm142.41-0.61491c0.62269-0.16227 1.4867-0.15159 1.92 0.0237 0.4333 0.17531-0.0762 0.30807-1.1322 0.29503-1.056-0.013-1.4105-0.15648-0.78782-0.31875zm-18.412-3.3965c0.63711-0.704 1.3024-1.28 1.4784-1.28s-0.20127 0.576-0.83838 1.28c-0.63712 0.704-1.3024 1.28-1.4784 1.28s0.20127-0.576 0.83839-1.28zm38.339-0.16-1.2192-1.44 1.44 1.2192c1.3532 1.1457 1.7314 1.6608 1.2192 1.6608-0.12145 0-0.76945-0.648-1.44-1.44zm-20.579-7.3384c0.968-0.14664 2.552-0.14664 3.52 0s0.176 0.26662-1.76 0.26662-2.728-0.11998-1.76-0.26662z" fill="#6c5595" />
  <path d="m239.84 287.58c0.44-0.17755 1.16-0.17755 1.6 0 0.44 0.17754 0.08 0.3228-0.8 0.3228s-1.24-0.14526-0.8-0.3228zm-3.5546-9.2892c-0.10401-4.0767-0.31602-4.9629-1.2454-5.2058-1.0497-0.2743-1.0484-0.29735 0.0201-0.36692 1.567-0.10204 1.839 0.94515 1.5767 6.0692l-0.22611 4.4165zm32.515-0.2754c0-4.0646-0.15852-4.8076-0.96-4.5001-0.528 0.20261-0.96 0.0894-0.96-0.25153 0-0.34095 0.576-0.61991 1.28-0.61991 1.1733 0 1.28 0.42666 1.28 5.12 0 2.816-0.144 5.12-0.32 5.12s-0.32-2.1908-0.32-4.8685zm3.4394-1.8515c1e-3 -3.872 0.10685-5.3735 0.23425-3.3366 0.12739 2.0369 0.12621 5.2049-3e-3 7.04-0.12884 1.8352-0.23307 0.16864-0.23162-3.7034zm31.761 1.9669c0-3.9886-0.18015-4.8002-1.12-5.0458-0.84283-0.22025-0.76363-0.31106 0.32-0.36692 1.3795-0.0711 1.44 0.1408 1.44 5.0458 0 2.816-0.144 5.12-0.32 5.12s-0.32-2.1389-0.32-4.7531zm3.3288-0.20692c-0.12457-5.1066-0.0815-5.2776 1.3112-5.2058 1.0419 0.0537 1.1376 0.15376 0.34616 0.36188-0.88642 0.23311-1.135 1.2202-1.3112 5.2058l-0.21737 4.9181zm50.671-1.76c1e-3 -3.872 0.10685-5.3735 0.23424-3.3366 0.1274 2.0369 0.12621 5.2049-3e-3 7.04-0.12884 1.8352-0.23307 0.16864-0.23162-3.7034zm-136.56 5.4778c0-0.33123 0.2847-0.77819 0.63267-0.99324 0.36279-0.22422 0.47008 0.0327 0.25152 0.60223-0.42546 1.1087-0.88419 1.3116-0.88419 0.39101zm133.32-3.8778c0-2.288 0.11616-3.224 0.25813-2.08s0.14197 3.016 0 4.16-0.25813 0.208-0.25813-2.08zm-161.16 1.92c0.21754-0.352 0.52254-0.64 0.67777-0.64 0.15522 0 0.28223 0.288 0.28223 0.64s-0.305 0.64-0.67777 0.64c-0.37278 0-0.49978-0.288-0.28223-0.64zm81.518-0.48c-0.79608-1.0151-0.77344-1.0377 0.24164-0.24164 1.0661 0.83608 1.4051 1.3616 0.87836 1.3616-0.1329 0-0.6369-0.504-1.12-1.12zm2.56 0c-0.79608-1.0151-0.77344-1.0377 0.24164-0.24164 1.0661 0.83608 1.4051 1.3616 0.87836 1.3616-0.1329 0-0.6369-0.504-1.12-1.12zm12.762 0.6828c0.462-0.18487 1.014-0.16214 1.2267 0.0505 0.21267 0.21267-0.16533 0.36393-0.84 0.33614-0.74556-0.0307-0.89721-0.18236-0.38666-0.38667zm70.438-0.6828c-0.79608-1.0151-0.77344-1.0377 0.24163-0.24164 1.0661 0.83608 1.4051 1.3616 0.87837 1.3616-0.1329 0-0.6369-0.504-1.12-1.12zm2.56 0c-0.79608-1.0151-0.77344-1.0377 0.24163-0.24164 1.0661 0.83608 1.4051 1.3616 0.87837 1.3616-0.1329 0-0.6369-0.504-1.12-1.12zm-46.49-1.44c0-1.232 0.13171-1.736 0.29268-1.12 0.16098 0.616 0.16098 1.624 0 2.24-0.16097 0.616-0.29268 0.112-0.29268-1.12zm-58.287 0c0-0.88 0.14526-1.24 0.32281-0.8 0.17754 0.44 0.17754 1.16 0 1.6-0.17755 0.44-0.32281 0.08-0.32281-0.8zm23.68 0c0-0.88 0.14526-1.24 0.32281-0.8 0.17754 0.44 0.17754 1.16 0 1.6-0.17755 0.44-0.32281 0.08-0.32281-0.8zm11.52 0c0-0.88 0.14526-1.24 0.3228-0.8 0.17755 0.44 0.17755 1.16 0 1.6-0.17754 0.44-0.3228 0.08-0.3228-0.8zm58.953-1.28c0-1.584 0.12481-2.232 0.27735-1.44 0.15255 0.792 0.15255 2.088 0 2.88-0.15254 0.792-0.27735 0.144-0.27735-1.44zm-140.97 0.67777c0-0.33123 0.2847-0.77819 0.63267-0.99324 0.36279-0.22422 0.47008 0.0327 0.25152 0.60223-0.42546 1.1087-0.88419 1.3116-0.88419 0.39101zm34.478-1.7978c-0.79608-1.0151-0.77344-1.0377 0.24164-0.24164 1.0661 0.83608 1.4051 1.3616 0.87836 1.3616-0.1329 0-0.6369-0.504-1.12-1.12zm31.442 0.87836c0-0.1329 0.504-0.6369 1.12-1.12 1.0151-0.79608 1.0377-0.77344 0.24163 0.24164-0.83608 1.0661-1.3616 1.4051-1.3616 0.87836zm86.4-0.64c0-0.1329 0.504-0.6369 1.12-1.12 1.0151-0.79608 1.0377-0.77344 0.24164 0.24164-0.83608 1.0661-1.3616 1.4051-1.3616 0.87836zm-81.28-0.64c0-0.1329 0.504-0.6369 1.12-1.12 1.0151-0.79608 1.0377-0.77344 0.24163 0.24164-0.83608 1.0661-1.3616 1.4051-1.3616 0.87836zm42.158-0.87836c-0.79608-1.0151-0.77344-1.0377 0.24163-0.24164 1.0661 0.83608 1.4051 1.3616 0.87837 1.3616-0.1329 0-0.6369-0.504-1.12-1.12zm-117.68-0.00641c0-0.38486-0.504-0.83145-1.12-0.99243-1.0097-0.26387-1.0135-0.29999-0.0378-0.36692 1.1546-0.0792 2.181 1.0358 1.5418 1.675-0.21124 0.21125-0.38408 0.0692-0.38408-0.31565zm-110.59-13.076c-0.06994-7.2832 0.08883-13.376 0.35283-13.54 0.264-0.16396 0.40556 3.779 0.31458 8.7622-0.30111 16.492-0.5386 18.192-0.66741 4.7781zm76.673 12.222c0-0.31905 0.576-0.58008 1.28-0.58008s1.28 0.11041 1.28 0.24535c0 0.13495-0.576 0.39598-1.28 0.58008-0.704 0.18411-1.28 0.0737-1.28-0.24535zm14.08 0.0599c-0.82042-0.5302-0.79715-0.62183 0.16-0.6302 0.616-5e-3 1.12 0.2782 1.12 0.6302 0 0.78055-0.0722 0.78055-1.28 0zm1.92-0.0599c0-0.31905 0.576-0.58008 1.28-0.58008s1.28 0.11041 1.28 0.24535c0 0.13495-0.576 0.39598-1.28 0.58008-0.704 0.18411-1.28 0.0737-1.28-0.24535zm-9.12-0.36394c0.44-0.17755 1.16-0.17755 1.6 0 0.44 0.17754 0.08 0.3228-0.8 0.3228s-1.24-0.14526-0.8-0.3228zm16 0c0.44-0.17755 1.16-0.17755 1.6 0 0.44 0.17754 0.08 0.3228-0.8 0.3228s-1.24-0.14526-0.8-0.3228zm6.44-0.0133c0.462-0.18487 1.014-0.16214 1.2267 0.0505 0.21267 0.21267-0.16533 0.36393-0.84 0.33614-0.74556-0.0307-0.89721-0.18236-0.38666-0.38667zm9.6 0c0.462-0.18487 1.014-0.16214 1.2267 0.0505 0.21267 0.21267-0.16533 0.36393-0.84 0.33614-0.74556-0.0307-0.89721-0.18236-0.38666-0.38667zm6.4 0c0.462-0.18487 1.014-0.16214 1.2267 0.0505 0.21267 0.21267-0.16533 0.36393-0.84 0.33614-0.74556-0.0307-0.89721-0.18236-0.38666-0.38667zm8.96 0c0.462-0.18487 1.014-0.16214 1.2267 0.0505 0.21267 0.21267-0.16533 0.36393-0.84 0.33614-0.74556-0.0307-0.89721-0.18236-0.38666-0.38667zm12.12 0.0133c0.44-0.17755 1.16-0.17755 1.6 0 0.44 0.17754 0.08 0.3228-0.8 0.3228s-1.24-0.14526-0.8-0.3228zm16.04-0.0133c0.462-0.18487 1.014-0.16214 1.2267 0.0505 0.21267 0.21267-0.16533 0.36393-0.84 0.33614-0.74556-0.0307-0.89721-0.18236-0.38666-0.38667zm23 0.0133c0.44-0.17755 1.16-0.17755 1.6 0 0.44 0.17754 0.08 0.3228-0.8 0.3228s-1.24-0.14526-0.8-0.3228zm67.24-0.0133c0.462-0.18487 1.014-0.16214 1.2267 0.0505 0.21267 0.21267-0.16533 0.36393-0.84 0.33614-0.74556-0.0307-0.89721-0.18236-0.38667-0.38667zm7 0.0133c0.44-0.17755 1.16-0.17755 1.6 0 0.44 0.17754 0.08 0.3228-0.8 0.3228s-1.24-0.14526-0.8-0.3228zm11.52 0c0.44-0.17755 1.16-0.17755 1.6 0 0.44 0.17754 0.08 0.3228-0.8 0.3228s-1.24-0.14526-0.8-0.3228zm-111.32-2.5733c0.462-0.18487 1.014-0.16214 1.2267 0.0505 0.21267 0.21267-0.16533 0.36393-0.84 0.33614-0.74556-0.0307-0.89721-0.18236-0.38666-0.38667zm-139.56-14.734c0.792-0.15255 2.088-0.15255 2.88 0 0.792 0.15254 0.144 0.27735-1.44 0.27735s-2.232-0.12481-1.44-0.27735zm82.56 0c0.792-0.15255 2.088-0.15255 2.88 0 0.792 0.15254 0.144 0.27735-1.44 0.27735s-2.232-0.12481-1.44-0.27735zm106.92-0.62553c0.462-0.18487 1.014-0.16214 1.2267 0.0505 0.21267 0.21267-0.16533 0.36393-0.84 0.33614-0.74556-0.0307-0.89721-0.18236-0.38666-0.38667zm2.0793-4.5228c-0.79091-2.728-1.6748-5.248-1.9642-5.6-0.34054-0.41418 0.86597-0.64387 3.4194-0.65096 2.1701-6e-3 4.7101-0.24635 5.6444-0.53404 1.6301-0.50192 1.7407-0.37928 2.7319 3.0302 2.1744 7.4796 2.257 7.136-1.9176 7.9744-6.4392 1.2932-6.293 1.3711-7.9139-4.2196zm-89.448 1.12c0-1.936 0.11998-2.728 0.26662-1.76s0.14664 2.552 0 3.52-0.26662 0.176-0.26662-1.76zm33.993-8c6.7e-4 -6.336 0.0965-8.8414 0.21284-5.5676 0.11639 3.2738 0.11584 8.4578-1e-3 11.52-0.11706 3.0622-0.21229 0.38363-0.21162-5.9524zm33.275 8.48-1.2192-1.44 1.44 1.2192c1.3532 1.1457 1.7314 1.6608 1.2192 1.6608-0.12145 0-0.76945-0.648-1.44-1.44zm-132.82-1.6c-0.79608-1.0151-0.77344-1.0377 0.24164-0.24164 0.616 0.4831 1.12 0.9871 1.12 1.12 0 0.52674-0.52556 0.18771-1.3616-0.87836zm137.6-2.56c-0.79608-1.0151-0.77344-1.0377 0.24164-0.24164 0.616 0.4831 1.12 0.9871 1.12 1.12 0 0.52674-0.52556 0.18771-1.3616-0.87836zm-9.8992-1.6-1.2192-1.44 1.44 1.2192c1.3532 1.1457 1.7314 1.6608 1.2192 1.6608-0.12145 0-0.76945-0.648-1.44-1.44zm-167.13-2.2035c0.6227-0.16227 1.4867-0.15159 1.92 0.0237 0.4333 0.17531-0.0762 0.30807-1.1322 0.29503-1.056-0.013-1.4105-0.15648-0.78782-0.31875zm89.908 0.0197c0.44-0.17755 1.16-0.17755 1.6 0 0.44 0.17754 0.08 0.3228-0.8 0.3228s-1.24-0.14526-0.8-0.3228zm-141.6-2.7762c0.63711-0.704 1.3024-1.28 1.4784-1.28s-0.20127 0.576-0.83838 1.28-1.3024 1.28-1.4784 1.28 0.20127-0.576 0.83838-1.28zm213.36-1.12c-0.79608-1.0151-0.77344-1.0377 0.24164-0.24164 1.0661 0.83608 1.4051 1.3616 0.87836 1.3616-0.1329 0-0.6369-0.504-1.12-1.12zm-246.91-3.0933c0.03071-0.74556 0.18236-0.89721 0.38667-0.38666 0.18488 0.462 0.16214 1.014-0.05053 1.2267-0.21267 0.21267-0.36393-0.16533-0.33614-0.84zm241.49-2.9867-1.2192-1.44 1.44 1.2192c1.3532 1.1457 1.7314 1.6608 1.2192 1.6608-0.12145 0-0.76945-0.648-1.44-1.44zm-128.21-0.85334c0.0307-0.74556 0.18237-0.89721 0.38667-0.38666 0.18488 0.462 0.16214 1.014-0.0505 1.2267-0.21266 0.21267-0.36393-0.16533-0.33614-0.84zm154.93-0.26666c0-0.88 0.14526-1.24 0.3228-0.8 0.17755 0.44 0.17755 1.16 0 1.6-0.17754 0.44-0.3228 0.08-0.3228-0.8zm-120.37-0.37334c0.0307-0.74556 0.18237-0.89721 0.38667-0.38666 0.18488 0.462 0.16214 1.014-0.0505 1.2267-0.21266 0.21267-0.36393-0.16533-0.33614-0.84zm-135.09-15.597v-15.331l-8.64-0.44778 9.28-0.2507v15.68c0 8.624-0.144 15.68-0.32 15.68s-0.32-6.8988-0.32-15.331zm177.44 11.171c7e-3 -1.408 0.13817-1.9086 0.29125-1.1125 0.15309 0.7961 0.14728 1.9481-0.0129 2.56-0.16019 0.61189-0.28544-0.0395-0.27834-1.4475zm-119.08 0c0.01304-1.056 0.15648-1.4105 0.31875-0.78782 0.16227 0.6227 0.1516 1.4867-0.02371 1.92-0.17531 0.4333-0.30808-0.0762-0.29503-1.1322zm168.2-3.7616c0-0.1329 0.504-0.6369 1.12-1.12 1.0151-0.79608 1.0377-0.77344 0.24163 0.24164-0.83608 1.0661-1.3616 1.4051-1.3616 0.87836zm-91.469-1.4117c0.0307-0.74556 0.18237-0.89721 0.38667-0.38666 0.18488 0.462 0.16214 1.014-0.0505 1.2267-0.21266 0.21267-0.36393-0.16533-0.33614-0.84zm76.109-16.884v-17.898l-13.12-0.41483 13.76-0.26995v17.958c0 13.411 0.18707 17.842 0.73888 17.501 0.45779-0.28293 0.56516-0.17556 0.28223 0.28223-1.3956 2.258-1.6611-0.48516-1.6611-17.159zm19.84 13.176c0-0.1329 0.504-0.6369 1.12-1.12 1.0151-0.79608 1.0377-0.77344 0.24163 0.24164-0.83608 1.0661-1.3616 1.4051-1.3616 0.87836zm-58.288-3.4384-1.5516-1.76 1.76 1.5516c1.645 1.4502 2.0535 1.9684 1.5516 1.9684-0.11464 0-0.90664-0.792-1.76-1.76zm118.81-0.98761c0.24034-0.63118 0.5982-0.98638 0.79525-0.78933s4.1e-4 0.71347-0.43698 1.1476c-0.63207 0.62737-0.70559 0.55386-0.35827-0.35827zm-55.081-1.7324c0.63711-0.704 1.3024-1.28 1.4784-1.28s-0.20127 0.576-0.83838 1.28c-0.63712 0.704-1.3024 1.28-1.4784 1.28s0.20127-0.576 0.83839-1.28zm-178.05-7.68c0-1.936 0.11998-2.728 0.26662-1.76 0.14664 0.968 0.14664 2.552 0 3.52-0.14664 0.968-0.26662 0.176-0.26662-1.76zm116.57 1.12-1.8797-2.08 4.0872 3.6898 0.19639-3.4449 0.19639-3.4449 13.123-0.0706-12.803 0.43547v3.4976c0 1.9237-0.23412 3.4976-0.52027 3.4976-0.28614 0-1.3661-0.936-2.4-2.08zm65.64 1.8384c0-0.1329 0.504-0.6369 1.12-1.12 1.0151-0.79608 1.0377-0.77344 0.24163 0.24164-0.83608 1.0661-1.3616 1.4051-1.3616 0.87836zm-180.48-1.28c0-0.1329 0.504-0.6369 1.12-1.12 1.0151-0.79608 1.0377-0.77344 0.24164 0.24164-0.83608 1.0661-1.3616 1.4051-1.3616 0.87836zm184.96-3.84c0-0.1329 0.504-0.6369 1.12-1.12 1.0151-0.79608 1.0377-0.77344 0.24163 0.24164-0.83608 1.0661-1.3616 1.4051-1.3616 0.87836zm-15.438-1.8589c0.27655-0.27531 4.0792-0.41808 8.4503-0.31728l7.9474 0.18329-8.4503 0.31728c-4.6476 0.17449-8.224 0.092-7.9474-0.18329zm-201.34-0.29309c2.0369-0.12739 5.2049-0.12621 7.04 3e-3 1.8351 0.12884 0.16863 0.23307-3.7034 0.23162-3.872-1e-3 -5.3735-0.10685-3.3366-0.23424zm20.48 0c2.0369-0.12739 5.2049-0.12621 7.04 3e-3 1.8351 0.12884 0.16863 0.23307-3.7034 0.23162-3.872-1e-3 -5.3735-0.10685-3.3366-0.23424zm54.385 0.0144c0.97284-0.1471 2.4128-0.14317 3.2 9e-3 0.78716 0.15191-9e-3 0.27227-1.7688 0.26747-1.76-5e-3 -2.404-0.1291-1.4312-0.27621zm21.751-0.0112c1.672-0.13184 4.408-0.13184 6.08 0s0.304 0.23971-3.04 0.23971-4.712-0.10787-3.04-0.23971zm38.12-0.60677c0.462-0.18487 1.014-0.16214 1.2267 0.0505 0.21267 0.21267-0.16533 0.36393-0.84 0.33614-0.74556-0.0307-0.89721-0.18236-0.38666-0.38667zm-51.537-12.836c2.0368-0.12739 5.2048-0.12621 7.04 3e-3 1.8351 0.12884 0.16863 0.23307-3.7034 0.23162-3.872-1e-3 -5.3735-0.10685-3.3366-0.23424z" fill="#262350" />
  <path d="m239.36 280.32v-7.0396l2.08 0.0753c1.144 0.0414 2.6668-0.12036 3.384-0.35947 0.86731-0.28914 1.8854 0.0226 3.04 0.9308 1.3615 1.071 1.736 1.9077 1.736 3.8791 0 4.3123-2.8778 5.994-7.1259 4.164-0.90521-0.38994-1.0016-0.0577-0.71677 2.4695 0.29935 2.6558 0.20578 2.92-1.0341 2.92-1.3084 0-1.3632-0.2834-1.3632-7.0396zm7.552-0.12838c0.4224-0.4224 0.768-1.5168 0.768-2.432 0-2.0125-1.0688-3.2-2.88-3.2-1.8112 0-2.88 1.1875-2.88 3.2s1.0688 3.2 2.88 3.2c0.7392 0 1.6896-0.3456 2.112-0.768zm-71.49-1.7314c-1.5947-5.2502-1.589-5.1806-0.42771-5.1806 0.5934 0 1.1713 1.2363 1.6454 3.52 0.40191 1.936 0.9525 3.52 1.2235 3.52s0.84726-1.584 1.2805-3.52c0.61475-2.747 1.0534-3.52 1.9972-3.52 0.88698 0 1.3951 0.72519 1.9057 2.72 1.1798 4.6088 1.2527 4.7473 1.9288 3.6621 0.32279-0.51814 0.772-2.1661 0.99824-3.6621 0.25623-1.6943 0.74595-2.72 1.2987-2.72 1.1322 0 1.1322-3.4e-4 -0.41977 5.211-0.98694 3.3139-1.589 4.389-2.4582 4.389-0.87307 0-1.3413-0.85011-1.9388-3.52-0.43326-1.936-1.0093-3.52-1.28-3.52s-0.84674 1.584-1.28 3.52c-0.60381 2.6981-1.0613 3.52-1.9595 3.52-0.89297 0-1.4912-1.0515-2.5141-4.4194zm16.929 3.6667c-0.69375-2.0669-2.2717-7.8485-2.2717-8.3235 0-0.28811 0.39995-0.52383 0.88877-0.52383 0.52474 0 1.063 0.98301 1.3141 2.4 0.63405 3.5775 1.0188 4.64 1.6802 4.64 0.32828 0 0.59848-0.504 0.60045-1.12 9e-3 -2.7714 1.3601-5.92 2.5406-5.92 0.93727 0 1.3786 0.77986 1.9918 3.52 0.43326 1.936 1.0093 3.52 1.28 3.52s0.84674-1.584 1.28-3.52c0.49847-2.2274 1.1187-3.52 1.689-3.52 0.55273 0 0.77842 0.43313 0.58358 1.12-1.9596 6.9079-2.6417 8.48-3.6795 8.48-0.83206 0-1.3183-0.89846-1.905-3.52-0.43326-1.936-0.98825-3.52-1.2333-3.52s-0.84882 1.5084-1.3417 3.3519c-0.87854 3.2862-2.7578 4.9004-3.4173 2.9354zm15.426-1.0073c-0.21038-0.968-0.8086-3.128-1.3294-4.8-0.80977-2.5998-0.81588-3.04-0.0422-3.04 0.52849 0 1.1943 1.1311 1.601 2.72 1.1798 4.6088 1.2527 4.7473 1.9288 3.6621 0.32279-0.51814 0.772-2.1661 0.99824-3.6621 0.34517-2.2825 0.64557-2.72 1.8674-2.72 1.1803 0 1.5367 0.45454 1.8814 2.4 0.63405 3.5775 1.0188 4.64 1.6802 4.64 0.32828 0 0.59848-0.504 0.60045-1.12 7e-3 -2.2634 1.3613-5.92 2.1923-5.92 0.66264 0 0.53604 1.0468-0.56116 4.64-1.0941 3.583-1.6872 4.64-2.6039 4.64-0.8836 0-1.3889-0.79108-1.9764-3.0942-1.2226-4.7927-1.415-4.7452-2.8074 0.69418-0.83562 3.2644-2.8086 3.8167-3.4294 0.96zm14.413 0.69812c0.12479-0.64797 0.65494-1.1781 1.1781-1.1781 1.3718 0 1.1737 1.8596-0.22688 2.1294-0.8553 0.16472-1.116-0.0959-0.95124-0.95123zm6.4318 0.0656c-1.1986-0.8395-1.4224-1.5949-1.4224-4.8 0-2.9544 0.21435-3.8037 0.96-3.8037 0.71722 0 0.96247 0.7688 0.9698 3.04 0.0125 3.8623 0.61832 4.7962 2.9396 4.5312 1.7753-0.20266 1.8584-0.36086 2.0425-3.8912 0.14082-2.6999 0.43911-3.68 1.12-3.68 0.72826 0 0.92807 1.0334 0.92807 4.8 0 3.84-0.192 4.8-0.96 4.8-0.528 0-0.96-0.29814-0.96-0.66252 0-0.45669-0.3846-0.45669-1.2379 0-1.7001 0.90988-2.7145 0.83258-4.3797-0.33378zm25.298 0.30503c-0.84652-0.49305-1.12-1.4911-1.12-4.0872 0-1.8892-0.29395-3.5328-0.65322-3.6526-0.85716-0.28572 0.70798-3.7171 1.6986-3.7239 0.39895-3e-3 0.87599 0.57101 1.0601 1.275s0.79369 1.28 1.3546 1.28 1.0199 0.288 1.0199 0.64-0.576 0.64-1.28 0.64c-1.1093 0-1.28 0.42666-1.28 3.2 0 2.7733 0.17066 3.2 1.28 3.2 0.71111 0 1.28 0.42666 1.28 0.96 0 1.0959-1.7056 1.2323-3.36 0.26873zm6.56-0.58875c-1.5506-1.5506-1.7376-5.851-0.31622-7.2724 1.4387-1.4387 3.3041-1.8462 4.7962-1.0476 0.73059 0.391 1.8935 0.53154 2.5842 0.31232 1.1722-0.37205 1.2558-0.0763 1.2558 4.4446 0 2.6637-0.264 4.8431-0.58667 4.8431s-0.69643-0.3293-0.83059-0.73178c-0.18301-0.54903-0.58538-0.54903-1.6113 0-2.0223 1.0823-3.8503 0.89293-5.2915-0.54822zm6.1432-2.246c1.7847-2.7052-2.0866-6.1928-4.5784-4.1248-1.1342 0.94128-1.211 3.9085-0.12927 4.9903 1.1272 1.1272 3.7058 0.65311 4.7077-0.86549zm6.0168-3.194c0-5.5467 0.16761-6.72 0.96-6.72 0.74909 0 0.96378 0.87876 0.97721 4l0.0172 4 1.7428-2.0858c0.95853-1.1472 2.2724-2.0832 2.9197-2.08 1.0394 5e-3 0.98339 0.23572-0.48 1.9749-2.1173 2.5162-2.0855 2.9678 0.38865 5.5204 1.8616 1.9207 1.9248 2.1105 0.70208 2.1105-0.77723 0-2.1698-1.0115-3.3041-2.4l-1.9606-2.4-0.0215 2.4c-0.0152 1.6971-0.30261 2.4-0.98146 2.4-0.79239 0-0.96-1.1733-0.96-6.72zm12.48 5.9552c-1.8331-1.0395-2.2192-1.813-2.2302-4.4688-0.0128-3.0838 2.5261-5.2993 5.4115-4.7222 2.3398 0.46795 3.3193 1.4046 3.8859 3.7157l0.4315 1.76h-3.9094c-3.0066 0-3.9094 0.21648-3.9094 0.93748 0 1.4364 2.3145 2.439 3.7979 1.645 0.68086-0.36438 1.7609-0.65293 2.4-0.64122 1.0092 0.0185 0.9633 0.18689-0.34883 1.28-1.6895 1.4075-3.6148 1.5795-5.5291 0.49394zm4.6782-6.1152c-0.15604-0.81025-0.83036-1.12-2.4382-1.12-1.6078 0-2.2821 0.30975-2.4382 1.12-0.17742 0.92127 0.25518 1.12 2.4382 1.12 2.183 0 2.6156-0.19873 2.4382-1.12zm5.8818 5.6c-1.5506-1.5506-1.7376-5.851-0.31622-7.2724 1.3998-1.3998 3.2928-1.8523 4.6686-1.116 0.66039 0.35343 1.8233 0.4798 2.5842 0.28081 1.3285-0.34742 1.3835-0.16822 1.3835 4.5129 0 2.6811-0.264 4.8746-0.58667 4.8746s-0.69643-0.3293-0.83059-0.73178c-0.18301-0.54903-0.58538-0.54903-1.6113 0-2.0223 1.0823-3.8503 0.89293-5.2915-0.54822zm5.632-1.408c0.4224-0.4224 0.768-1.5168 0.768-2.432 0-2.0125-1.0688-3.2-2.88-3.2-1.8112 0-2.88 1.1875-2.88 3.2s1.0688 3.2 2.88 3.2c0.7392 0 1.6896-0.3456 2.112-0.768zm6.528-2.112c0-3.84 0.192-4.8 0.96-4.8s0.96 0.96 0.96 4.8-0.192 4.8-0.96 4.8-0.96-0.96-0.96-4.8zm4.7655 4.1042c-0.65953-1.0672 0.82381-2.2909 1.7067-1.408 0.73851 0.73851 0.2763 2.1038-0.71224 2.1038-0.31045 0-0.75796-0.3131-0.99446-0.69577zm6.2569-0.30053c-1.089-0.76273-1.4201-1.6254-1.4126-3.68 0.0111-3.0458 0.37197-3.7877 2.3481-4.8279 2.0656-1.0873 3.1305-0.91195 5.1264 0.84396 1.7159 1.5096 1.7334 1.5807 0.39346 1.6-0.77123 0.0111-1.5802-0.26777-1.7978-0.61977-0.81491-1.3186-3.5321-0.69153-4.16 0.96-0.96676 2.5428 0.20457 4.8 2.4908 4.8 1.0354 0 1.9895-0.32088 2.1202-0.71306 0.13073-0.39217 0.79942-0.60487 1.486-0.47265 1.2006 0.23121 1.1935 0.29519-0.18435 1.673-1.6712 1.6712-4.3836 1.8559-6.4102 0.43636zm11.028-0.57461c-2.7524-2.7524-1.6168-7.3969 2.0326-8.3128 3.7861-0.95026 7.2306 2.4942 6.2803 6.2803-0.91593 3.6494-5.5604 4.785-8.3128 2.0326zm6.1419-2.0355c1.4202-3.7355-3.6271-6.7179-5.2693-3.1136-1.1237 2.4663 0.17853 4.8 2.6786 4.8 1.5173 0 2.0917-0.37393 2.5907-1.6864zm4.7327 2.9106c-0.65953-1.0672 0.82381-2.2909 1.7067-1.408 0.73851 0.73851 0.2763 2.1038-0.71224 2.1038-0.31045 0-0.75796-0.3131-0.99446-0.69577zm6.1145-0.58423c-1.6378-1.6378-1.8948-8.32-0.32-8.32 0.72 0 0.96 0.768 0.96 3.072 0 3.3859 0.79177 4.608 2.9855 4.608 1.8958 0 2.9557-2.0698 2.6581-5.1909-0.18201-1.9086-0.01-2.4892 0.73954-2.4894 0.79297-2.5e-4 0.95858 0.8516 0.87952 4.5241-0.10525 4.8898-0.37782 5.6353-1.6686 4.5641-0.53258-0.442-1.1782-0.47873-1.7755-0.10101-1.4988 0.94794-3.0803 0.7114-4.4585-0.6668zm11.52-5.44c0-5.5467 0.16762-6.72 0.96-6.72 0.74816 0 0.96574 0.88267 0.98601 4l0.026 4 1.7806-2.08c0.97933-1.144 2.2783-2.08 2.8866-2.08 0.94298 0 0.86537 0.31543-0.52661 2.1404-0.89791 1.1772-1.6326 2.3875-1.6326 2.6895 0 0.30201 0.9205 1.4988 2.0456 2.6596 1.8616 1.9207 1.9248 2.1105 0.70208 2.1105-0.77724 0-2.1698-1.0115-3.3041-2.4l-1.9606-2.4-0.0215 2.4c-0.0152 1.6971-0.3026 2.4-0.98146 2.4-0.79238 0-0.96-1.1733-0.96-6.72zm-274.56-38.08v-36.48l13.12-0.00175-0.21923 3.5209c-0.12058 1.9365 0.03893 3.5209 0.35445 3.5209 0.31553 0 1.5267-0.98327 2.6915-2.185 4.7554-4.9063 13.719-7.1227 21.183-5.238 13.179 3.3276 20.689 17.016 17.954 32.722-1.5037 8.6348-5.9343 15.1-12.958 18.908-3.8763 2.1017-4.3262 2.1934-10.765 2.1934-5.8734 0-7.1075-0.19796-9.7957-1.5713-1.6916-0.8642-4.2308-2.6377-5.6427-3.9411-1.6515-1.5247-2.6753-2.0876-2.8707-1.5784-0.16703 0.43528-0.21982 6.6011-0.11731 13.702l0.18638 12.91-13.12-0.00132zm31.724 5.4566c5.9817-1.788 9.8803-6.966 10.367-13.769 0.40692-5.6873-0.63326-9.4355-3.5709-12.867-7.0369-8.221-19.856-5.9837-24.18 4.2202-1.3924 3.2861-1.4123 10.679-0.03716 13.843 2.0168 4.6398 5.6553 7.7791 10.337 8.9188 2.9232 0.71165 3.6708 0.67524 7.0838-0.34498zm191.8 26.383c0.40321-1.211 2.4003-1.3832 2.4003-0.20693 0 0.59368-0.5472 1.0069-1.3333 1.0069-0.78206 0-1.2232-0.33077-1.067-0.8zm-267.25-15.485c-6.2732-1.8004-10.753-6.1711-13.038-12.721-1.0009-2.869-1.1561-5.5618-1.1561-20.061v-16.747l1.5516-1.6526c1.3944-1.4851 2.0265-1.6525 6.24-1.6525h4.6884v14.633c0 8.048 0.28939 16.159 0.64309 18.024 1.2638 6.664 6.5734 10.715 13.154 10.036 4.4509-0.45937 6.9659-1.8604 9.0855-5.0614l1.7573-2.6537 0.18894-17.488 0.18894-17.488h13.382v53.12h-13.44v-3.2c0-1.76-0.11354-3.2-0.25232-3.2s-1.2188 0.90844-2.4 2.0188c-1.1812 1.1103-3.4437 2.5992-5.0277 3.3085-3.6309 1.626-11.293 2.0137-15.566 0.7875zm149.15-0.59341c-6.5724-2.7566-9.8917-6.0273-12.994-12.803-5.0097-10.943-2.6964-26.323 5.0986-33.899 5.0533-4.9113 12.133-7.3178 19.198-6.5259 5.0215 0.56279 8.5454 2.1391 12.094 5.4097 1.5615 1.4394 3.0229 2.617 3.2476 2.617 0.22463 0 0.40843-1.584 0.40843-3.52v-3.52h12.8v53.12h-12.8v-3.84c0-2.112-0.0971-3.84-0.21583-3.84-0.11871 0-1.3844 1.1116-2.8127 2.4703-4.2922 4.083-7.9161 5.5017-14.572 5.7044-4.8995 0.14923-6.3116-0.0559-9.4527-1.3734zm18.793-11.32c2.956-1.4976 5.972-4.9446 7.0578-8.0661 1.425-4.0969 1.0187-10.889-0.87419-14.615-1.9445-3.8271-3.1079-4.9526-6.8957-6.6708-7.1372-3.2374-14.93-0.46644-18.759 6.6708-1.9861 3.7012-1.9665 12.326 0.0365 16.091 3.9354 7.3985 12.265 10.223 19.435 6.5898zm92.988 11.886c-12.552-2.7305-20.074-12.685-20.074-26.567 0-11.752 4.8718-19.93 14.626-24.552 3.9951-1.8929 4.6668-2.0084 11.677-2.0084 7.4159 0 7.4537 8e-3 12.452 2.56 3.7331 1.9061 5.7156 3.4244 7.7615 5.944 1.5113 1.8612 2.7478 3.774 2.7478 4.2506 0 0.47666-3.0314 4.6419-6.7364 9.256l-6.7364 8.3894h-23.167l0.39421 1.9711c0.93415 4.6707 3.3164 7.7694 7.8764 10.245 1.5403 0.83629 2.1214 1.8752 3.2807 5.8648 0.77482 2.6666 1.4088 5.0173 1.4088 5.2237 0 0.5135-0.958 0.41314-5.5112-0.57733zm18.937-32.167c-8e-3 -0.616-0.54275-2.2839-1.1889-3.7065-3.341-7.3551-13.153-9.6161-19.991-4.6064-1.8375 1.3462-4.0077 4.923-4.6556 7.6729l-0.41467 1.76h13.132c12.086 0 13.131-0.0893 13.118-1.12zm-162.23 31.882c-3.0198-0.73516-5.784-2.385-7.588-4.5289-3.0662-3.6439-3.612-7.1422-3.612-23.149v-14.604h-6.4v-10.17l6.08-0.39013 0.36478-13.12h13.35l0.36478 13.12 11.84 0.36803v10.192h-12.16l0.01 14.56c5e-3 8.008 0.22139 14.877 0.48 15.264 0.98073 1.4688 3.4075 2.1758 7.4681 2.1758h4.2019v10.88l-6.24-0.0655c-3.432-0.036-7.104-0.27585-8.16-0.53293zm79.04-32.682v-33.28h12.8v17.92c0 9.856 0.21721 17.92 0.4827 17.92s4.4547-5.0242 9.3094-11.165l8.8267-11.165 8.4506-0.19518c4.6478-0.10735 8.5151-0.17864 8.594-0.15842 0.0789 0.0202-5.0351 5.9242-11.364 13.12s-11.434 13.419-11.343 13.829c0.0904 0.41007 4.3645 5.4501 9.498 11.2 5.1335 5.7499 10.275 11.534 11.426 12.854l2.0927 2.4-17.093-0.1004-8.8016-11.15c-4.8409-6.1324-9.0889-11.15-9.44-11.15-0.40026 0-0.63843 4.1784-0.63843 11.2v11.2h-12.8z" fill="#040531" />
</svg>